<svg width="56" height="56" viewBox="0 0 56 56" fill="none" xmlns="http://www.w3.org/2000/svg">
<path fill-rule="evenodd" clip-rule="evenodd" d="M18.9063 15.6083C17.1312 15.6083 15.8176 17.162 15.8765 18.847C15.9329 20.4658 15.8596 22.5624 15.3318 24.2722C14.8021 25.9868 13.9069 27.0733 12.4445 27.2128V28.7873C13.9069 28.927 14.8021 30.013 15.3317 31.7278C15.8596 33.4376 15.9329 35.5342 15.8764 37.153C15.8176 38.8377 17.1311 40.3917 18.9066 40.3917H37.0961C38.8712 40.3917 40.1845 38.838 40.1257 37.153C40.0692 35.5342 40.1426 33.4376 40.6704 31.7278C41.2001 30.013 42.093 28.9266 43.5556 28.7873V27.2128C42.0931 27.073 41.2001 25.987 40.6704 24.2722C40.1425 22.5627 40.0692 20.4658 40.1257 18.847C40.1845 17.1623 38.8712 15.6083 37.0961 15.6083H18.9061H18.9063ZM33.5368 30.8641C33.5368 33.1843 31.8061 34.5914 28.9341 34.5914H24.0452C23.9053 34.5914 23.7712 34.5358 23.6723 34.4369C23.5734 34.338 23.5179 34.2039 23.5179 34.0641V21.936C23.5179 21.7962 23.5734 21.662 23.6723 21.5632C23.7712 21.4643 23.9053 21.4087 24.0452 21.4087H28.9063C31.3011 21.4087 32.8727 22.7059 32.8727 24.6975C32.8727 26.0954 31.8154 27.3468 30.4685 27.566V27.6389C32.3021 27.8401 33.5368 29.11 33.5368 30.8641ZM28.4011 23.0803H25.6135V27.0178H27.9613C29.7763 27.0178 30.7771 26.2869 30.7771 24.9805C30.7769 23.7563 29.9165 23.0803 28.4011 23.0803ZM25.6135 28.5801V32.9193H28.5036C30.3934 32.9193 31.3943 32.161 31.3943 30.736C31.3943 29.3109 30.3653 28.5798 28.3821 28.5798H25.6135V28.5801Z" fill="#7952B3"/>
</svg>
