<svg width="56" height="56" viewBox="0 0 56 56" fill="none" xmlns="http://www.w3.org/2000/svg">
<path d="M42.9688 26.6138L29.3854 13.0312C28.6036 12.2489 27.3349 12.2489 26.5521 13.0312L23.7315 15.8518L27.3096 19.43C28.1411 19.149 29.0946 19.3375 29.7574 20.0003C30.4234 20.6674 30.6106 21.629 30.3228 22.4632L33.7711 25.9116C34.6054 25.6242 35.568 25.8102 36.2344 26.4776C37.1656 27.4085 37.1656 28.9173 36.2344 29.8488C35.3029 30.7804 33.7941 30.7804 32.8621 29.8488C32.1616 29.1476 31.9886 28.1188 32.3432 27.2559L29.1273 24.04L29.1269 32.5028C29.3601 32.6181 29.573 32.7704 29.7574 32.9537C30.6887 33.8846 30.6887 35.3935 29.7574 36.3257C28.8259 37.2569 27.3164 37.2569 26.3862 36.3257C25.455 35.3935 25.455 33.8847 26.3862 32.9538C26.6094 32.7305 26.8746 32.5537 27.1666 32.4336V23.8919C26.8742 23.7725 26.6088 23.5956 26.3862 23.3716C25.6807 22.667 25.511 21.6317 25.8725 20.7653L22.3453 17.2377L13.0314 26.551C12.2488 27.334 12.2488 28.6029 13.0314 29.3853L26.6151 42.9682C27.3971 43.7506 28.6656 43.7506 29.4486 42.9682L42.9687 29.4484C43.7511 28.6657 43.7511 27.3961 42.9687 26.6138" fill="#EF4444"/>
</svg>
