<svg width="56" height="56" viewBox="0 0 56 56" fill="none" xmlns="http://www.w3.org/2000/svg">
<path d="M28.0001 12.8284C19.41 12.8284 12.4445 19.7928 12.4445 28.384C12.4445 35.257 16.9016 41.0879 23.0824 43.1448C23.8598 43.2888 24.1452 42.8074 24.1452 42.3965C24.1452 42.0256 24.1307 40.8001 24.1241 39.5003C19.7964 40.4413 18.8833 37.665 18.8833 37.665C18.1757 35.8669 17.1561 35.3889 17.1561 35.3889C15.7448 34.4234 17.2625 34.4432 17.2625 34.4432C18.8246 34.553 19.6471 36.0463 19.6471 36.0463C21.0345 38.4244 23.2861 37.7368 24.1738 37.3395C24.3134 36.3339 24.7166 35.6478 25.1614 35.2594C21.7063 34.8659 18.0742 33.5321 18.0742 27.5716C18.0742 25.8734 18.6818 24.4857 19.677 23.3963C19.5155 23.0045 18.9831 21.4224 19.8277 19.2797C19.8277 19.2797 21.1339 18.8616 24.1066 20.8742C25.3473 20.5294 26.6781 20.3567 28.0001 20.3508C29.3221 20.3567 30.6538 20.5294 31.897 20.8742C34.8661 18.8616 36.1705 19.2797 36.1705 19.2797C37.0172 21.4224 36.4846 23.0045 36.323 23.3963C37.3204 24.4857 37.9239 25.8733 37.9239 27.5716C37.9239 33.5462 34.2849 34.8619 30.8211 35.2469C31.379 35.7297 31.8761 36.6764 31.8761 38.1276C31.8761 40.2089 31.8581 41.8841 31.8581 42.3965C31.8581 42.8104 32.1381 43.2955 32.9267 43.1428C39.104 41.0835 43.5556 35.2547 43.5556 28.384C43.5556 19.7928 36.591 12.8284 28.0001 12.8284Z" fill="white"/>
<path d="M18.2705 34.9878C18.2364 35.065 18.1146 35.0882 18.0039 35.0352C17.8911 34.9845 17.8277 34.8791 17.8643 34.8015C17.8978 34.7219 18.0196 34.6997 18.1322 34.7532C18.2453 34.8038 18.3097 34.9102 18.2705 34.9878ZM19.0357 35.6705C18.9615 35.7393 18.8165 35.7073 18.718 35.5986C18.6163 35.4902 18.5972 35.3452 18.6725 35.2753C18.749 35.2066 18.8897 35.2387 18.9917 35.3473C19.0934 35.457 19.1132 35.6011 19.0356 35.6706L19.0357 35.6705ZM19.5607 36.544C19.4653 36.6103 19.3094 36.5482 19.2131 36.4098C19.1178 36.2716 19.1178 36.1057 19.2152 36.0392C19.3118 35.9727 19.4653 36.0325 19.5629 36.1697C19.658 36.3104 19.658 36.4763 19.5605 36.5441L19.5607 36.544ZM20.4483 37.5558C20.3631 37.6497 20.1815 37.6246 20.0486 37.4962C19.9126 37.3708 19.8747 37.1928 19.9602 37.0987C20.0465 37.0046 20.2291 37.031 20.3631 37.1583C20.4981 37.2835 20.5394 37.4628 20.4485 37.5558H20.4483ZM21.5956 37.8974C21.5582 38.0191 21.3832 38.0745 21.2071 38.0228C21.0311 37.9695 20.916 37.8267 20.9515 37.7036C20.9881 37.581 21.1638 37.5233 21.3413 37.5787C21.5169 37.6318 21.6324 37.7734 21.5958 37.8974H21.5956ZM22.9015 38.0422C22.9059 38.1705 22.7565 38.2769 22.5715 38.2792C22.3855 38.2832 22.235 38.1794 22.2331 38.0533C22.2331 37.9237 22.3791 37.8183 22.5651 37.8153C22.75 37.8116 22.9015 37.9147 22.9015 38.0422ZM24.1842 37.993C24.2064 38.1182 24.0779 38.2468 23.8942 38.2809C23.7137 38.3139 23.5465 38.2366 23.5235 38.1126C23.501 37.9842 23.6321 37.8558 23.8123 37.8225C23.9962 37.7905 24.1608 37.8658 24.1842 37.993Z" fill="white"/>
</svg>
