<svg width="56" height="56" viewBox="0 0 56 56" fill="none" xmlns="http://www.w3.org/2000/svg">
<path d="M23.9172 36.5047C23.9172 36.5047 22.7283 37.196 24.7633 37.43C27.2286 37.7112 28.4885 37.6709 31.2054 37.1567C31.2054 37.1567 31.9197 37.6045 32.9171 37.9925C26.8269 40.6027 19.1335 37.8413 23.9172 36.5047ZM23.173 33.0985C23.173 33.0985 21.8395 34.0856 23.876 34.2962C26.5095 34.5679 28.5893 34.5901 32.188 33.8971C32.188 33.8971 32.6858 34.4017 33.4685 34.6777C26.1049 36.8309 17.9032 34.8475 23.173 33.0985Z" fill="#14B8A6"/>
<path d="M29.4469 27.3206C30.9476 29.0483 29.0526 30.603 29.0526 30.603C29.0526 30.603 32.863 28.636 31.1131 26.1727C29.4787 23.8757 28.2253 22.7343 35.0105 18.7991C35.0105 18.7991 24.3599 21.4591 29.4469 27.3205" fill="#EA580C"/>
<path d="M37.5018 39.0241C37.5018 39.0241 38.3816 39.749 36.5328 40.3098C33.0175 41.3748 21.9013 41.6964 18.8133 40.3522C17.7033 39.8694 19.785 39.1992 20.4397 39.0585C21.1226 38.9105 21.5129 38.9381 21.5129 38.9381C20.2784 38.0684 13.5336 40.6457 18.0869 41.3837C30.5044 43.3975 40.7227 40.477 37.5018 39.0241ZM24.4888 29.5694C24.4888 29.5694 18.8345 30.9124 22.4866 31.4C24.0285 31.6065 27.1024 31.5598 29.9657 31.3198C32.3058 31.1226 34.6554 30.7028 34.6554 30.7028C34.6554 30.7028 33.8303 31.0562 33.2334 31.4638C27.4915 32.974 16.3991 32.2714 19.5925 30.7267C22.2931 29.4213 24.4889 29.5694 24.4889 29.5694H24.4888ZM34.6321 35.2391C40.4691 32.2059 37.7703 29.2912 35.8866 29.6839C35.4249 29.78 35.219 29.8632 35.219 29.8632C35.219 29.8632 35.3905 29.5948 35.7178 29.4786C39.4443 28.1684 42.3103 33.3426 34.5148 35.3919C34.5148 35.392 34.6052 35.3113 34.6321 35.2391Z" fill="#14B8A6"/>
<path d="M31.113 12.4448C31.113 12.4448 34.3457 15.6786 28.0471 20.651C22.9963 24.6398 26.8953 26.9141 28.045 29.5125C25.0968 26.8525 22.9331 24.5109 24.3847 22.3315C26.5151 19.1322 32.4173 17.5812 31.113 12.4447" fill="#EA580C"/>
<path d="M25.0624 43.458C30.6652 43.8167 39.2688 43.259 39.4725 40.608C39.4725 40.608 39.0809 41.6131 34.8422 42.4111C30.0601 43.311 24.1622 43.206 20.664 42.6292C20.6641 42.6292 21.3801 43.2219 25.0625 43.458" fill="#14B8A6"/>
</svg>
