<svg width="56" height="56" viewBox="0 0 56 56" fill="none" xmlns="http://www.w3.org/2000/svg">
<path d="M27.9027 12.5294L28.7329 14.0887C28.9195 14.3765 29.1217 14.6312 29.3599 14.8684C30.0582 15.558 30.7091 16.294 31.3081 17.0713C32.7148 18.9184 33.6636 20.9696 34.3412 23.1881C34.7476 24.5432 34.9683 25.9334 34.9848 27.3391C35.0528 31.5418 33.6121 35.1504 30.7073 38.1495C30.2348 38.625 29.7244 39.0614 29.181 39.4541C28.8933 39.4541 28.7572 39.2334 28.6386 39.0302C28.4226 38.6535 28.2788 38.2397 28.2147 37.8102C28.1126 37.3017 28.0456 36.7933 28.0786 36.2683V36.0311C28.0553 35.9806 27.8016 12.649 27.9027 12.5294Z" fill="#599636"/>
<path d="M27.9027 12.4779C27.8686 12.4099 27.8346 12.4614 27.8006 12.4944C27.8171 12.8347 27.6985 13.138 27.5128 13.4277C27.3087 13.7155 27.0384 13.9361 26.7672 14.1733C25.2603 15.478 24.0743 17.0538 23.1245 18.8163C21.8607 21.1884 21.2094 23.7305 21.0247 26.4069C20.9401 27.3722 21.3299 30.7786 21.6342 31.7615C22.4644 34.3707 23.9557 36.5571 25.8874 38.4547C26.3618 38.9116 26.8693 39.3355 27.3942 39.7428C27.5468 39.7428 27.5634 39.6067 27.5984 39.5056C27.6653 39.2893 27.7163 39.0683 27.751 38.8446L28.0913 36.3034L27.9027 12.4779Z" fill="#6CAC48"/>
<path d="M28.7329 40.4865C28.7669 40.0977 28.9536 39.7749 29.1567 39.4531C28.9526 39.3686 28.8009 39.2004 28.6823 39.0128C28.5801 38.8351 28.4954 38.6479 28.4296 38.4538C28.1924 37.7422 28.1418 36.9956 28.0738 36.2684V35.828C27.9892 35.8961 27.9717 36.4716 27.9717 36.5571C27.9222 37.3257 27.8202 38.0899 27.6664 38.8446C27.6159 39.1498 27.5819 39.4541 27.3942 39.7253C27.3942 39.7594 27.3942 39.7934 27.4108 39.8439C27.716 40.7422 27.7996 41.657 27.8511 42.5893V42.9295C27.8511 43.3359 27.8346 43.2503 28.1719 43.3864C28.3081 43.437 28.4597 43.4545 28.5958 43.5556C28.6979 43.5556 28.7144 43.471 28.7144 43.403L28.6639 42.844V41.2847C28.6473 41.0125 28.6979 40.7422 28.7319 40.4875L28.7329 40.4865Z" fill="#C2BFBF"/>
</svg>
