<svg width="56" height="56" viewBox="0 0 56 56" fill="none" xmlns="http://www.w3.org/2000/svg">
<path d="M28 30.7429C29.5149 30.7429 30.7429 29.5149 30.7429 28C30.7429 26.4852 29.5149 25.2572 28 25.2572C26.4852 25.2572 25.2572 26.4852 25.2572 28C25.2572 29.5149 26.4852 30.7429 28 30.7429Z" fill="#61DAFB"/>
<path fill-rule="evenodd" clip-rule="evenodd" d="M15.1091 26.555C14.4879 27.1157 14.2824 27.6057 14.2824 28C14.2824 28.3944 14.4879 28.8844 15.1091 29.4451C15.7301 30.0057 16.6849 30.5564 17.9498 31.0393C20.4728 32.0027 24.0258 32.6195 28 32.6195C31.9743 32.6195 35.5273 32.0027 38.0502 31.0393C39.3152 30.5564 40.27 30.0057 40.891 29.4451C41.5121 28.8844 41.7176 28.3944 41.7176 28C41.7176 27.6057 41.5121 27.1157 40.891 26.555C40.27 25.9943 39.3152 25.4436 38.0502 24.9607C35.5273 23.9974 31.9743 23.3806 28 23.3806C24.0258 23.3806 20.4728 23.9974 17.9498 24.9607C16.6849 25.4436 15.7301 25.9943 15.1091 26.555ZM17.2364 23.0922C20.0401 22.0217 23.8459 21.3806 28 21.3806C32.1541 21.3806 35.9599 22.0217 38.7636 23.0922C40.1621 23.6262 41.3626 24.2864 42.2311 25.0704C43.0995 25.8543 43.7176 26.8426 43.7176 28C43.7176 29.1574 43.0995 30.1457 42.2311 30.9296C41.3626 31.7136 40.1621 32.3738 38.7636 32.9078C35.9599 33.9783 32.1541 34.6195 28 34.6195C23.8459 34.6195 20.0401 33.9783 17.2364 32.9078C15.838 32.3738 14.6374 31.7136 13.7689 30.9296C12.9005 30.1457 12.2824 29.1574 12.2824 28C12.2824 26.8426 12.9005 25.8543 13.7689 25.0704C14.6374 24.2864 15.838 23.6262 17.2364 23.0922Z" fill="#61DAFB"/>
<path fill-rule="evenodd" clip-rule="evenodd" d="M22.806 16.1136C22.0099 15.856 21.4827 15.923 21.1412 16.1202C20.7997 16.3174 20.4781 16.7404 20.3031 17.5586C20.1281 18.3768 20.1286 19.479 20.3428 20.8159C20.77 23.4826 22.0124 26.868 23.9995 30.3097C25.9866 33.7515 28.2973 36.5201 30.393 38.2234C31.4437 39.0774 32.398 39.6289 33.1941 39.8864C33.9902 40.144 34.5173 40.077 34.8588 39.8798C35.2004 39.6826 35.5219 39.2596 35.697 38.4414C35.872 37.6233 35.8715 36.521 35.6573 35.1841C35.2301 32.5175 33.9877 29.1321 32.0006 25.6903C30.0135 22.2485 27.7028 19.4799 25.6071 17.7766C24.5563 16.9226 23.602 16.3711 22.806 16.1136ZM26.8685 16.2245C29.1974 18.1174 31.6556 21.0927 33.7326 24.6903C35.8097 28.2878 37.1573 31.9043 37.6321 34.8677C37.8689 36.3458 37.8974 37.7156 37.6527 38.8597C37.408 40.0037 36.8612 41.0332 35.8588 41.6119C34.8565 42.1906 33.6915 42.1494 32.5785 41.7893C31.4652 41.4292 30.2932 40.7196 29.1316 39.7755C26.8026 37.8826 24.3445 34.9073 22.2674 31.3097C20.1904 27.7122 18.8427 24.0957 18.368 21.1323C18.1312 19.6543 18.1026 18.2845 18.3473 17.1403C18.592 15.9963 19.1389 14.9669 20.1412 14.3882C21.1436 13.8094 22.3085 13.8506 23.4216 14.2107C24.5348 14.5708 25.7068 15.2804 26.8685 16.2245Z" fill="#61DAFB"/>
<path fill-rule="evenodd" clip-rule="evenodd" d="M35.6969 17.5586C35.5219 16.7404 35.2003 16.3174 34.8588 16.1202C34.5173 15.923 33.9902 15.856 33.194 16.1136C32.398 16.3711 31.4437 16.9226 30.393 17.7766C28.2972 19.4799 25.9866 22.2485 23.9994 25.6903C22.0123 29.1321 20.77 32.5175 20.3428 35.1841C20.1286 36.521 20.1281 37.6232 20.3031 38.4414C20.4781 39.2596 20.7997 39.6826 21.1412 39.8798C21.4827 40.077 22.0098 40.144 22.806 39.8864C23.602 39.6289 24.5563 39.0774 25.607 38.2234C27.7028 36.5201 30.0135 33.7515 32.0006 30.3097C33.9877 26.8679 35.23 23.4825 35.6573 20.8159C35.8715 19.479 35.8719 18.3768 35.6969 17.5586ZM37.6321 21.1323C37.1573 24.0957 35.8097 27.7122 33.7326 31.3097C31.6556 34.9073 29.1974 37.8826 26.8685 39.7755C25.7068 40.7196 24.5348 41.4292 23.4216 41.7893C22.3085 42.1494 21.1436 42.1906 20.1412 41.6119C19.1388 41.0331 18.592 40.0037 18.3473 38.8597C18.1026 37.7156 18.1311 36.3457 18.3679 34.8677C18.8427 31.9043 20.1904 28.2878 22.2674 24.6903C24.3444 21.0927 26.8026 18.1174 29.1316 16.2245C30.2932 15.2804 31.4652 14.5708 32.5784 14.2107C33.6915 13.8506 34.8565 13.8094 35.8588 14.3881C36.8612 14.9669 37.408 15.9963 37.6527 17.1403C37.8974 18.2844 37.8689 19.6543 37.6321 21.1323Z" fill="#61DAFB"/>
</svg>
