<?xml version="1.0"?>
<svg version="1.1" xmlns="http://www.w3.org/2000/svg" width="400px" height="200px" style="border: dashed 2px #aaa"><path fill="#" d="M52.436,112.908l6.384-17.248l2.8-0.14l6.216,17.388l2.324,0.532l0,1.68l-8.12,0l0-1.68l2.604-0.532l-1.064-3.108l-7.28,0l-1.092,3.108l2.632,0.532l0,1.68l-7.7,0l0-1.68z M62.824,107.56l-2.828-8.428l-2.94,8.428l5.768,0z M73.4808,115.12l0-1.68l2.38-0.56l0-15.12l-2.38-0.56l0-1.54l7.98-0.14l0,1.68l-2.66,0.56l0,6.16l2.576,0l4.844-8.26l4.62-0.14l0,1.68l-2.772,0.56l-4.256,7.084l5.768,8.036l2.38,0.56l0,1.68l-7.98,0l0-1.68l2.38-0.56l-4.816-6.72l-2.744,0l0,6.72l2.66,0.56l0,1.68l-7.98,0z M97.6616,109.38l0.56,2.94s1.26,0.7,3.08,0.7c2.044,0,4.284-1.008,4.284-2.996c0-4.312-10.108-2.52-10.108-9.212c0-3.92,3.136-5.572,6.636-5.572c2.66,0,5.908,1.12,5.908,1.12l-0.14,4.76l-1.82,0l-0.952-2.996s-1.428-0.504-2.968-0.504c-2.52,0-3.724,1.316-3.724,2.716c0,4.256,10.08,2.632,10.08,8.932c0,4.2-3.388,6.132-7.308,6.132c-2.94,0-5.768-1.12-5.768-1.12l0-4.9l2.24,0z M113.2184,115.12l0-1.68l2.38-0.56l0-15.12l-2.38-0.56l0-1.54l7.98-0.14l0,1.68l-2.66,0.56l0,6.16l9.38,0l0-6.16l-2.66-0.56l0-1.54l7.98-0.14l0,1.68l-2.38,0.56l0,15.12l2.38,0.56l0,1.68l-7.98,0l0-1.68l2.66-0.56l0-6.72l-9.38,0l0,6.72l2.66,0.56l0,1.68l-7.98,0z M138.7152,112.908l6.384-17.248l2.8-0.14l6.216,17.388l2.324,0.532l0,1.68l-8.12,0l0-1.68l2.604-0.532l-1.064-3.108l-7.28,0l-1.092,3.108l2.632,0.532l0,1.68l-7.7,0l0-1.68z M149.1032,107.56l-2.828-8.428l-2.94,8.428l5.768,0z M162.14,115.12l0-1.68l2.8-0.56l0-15.12l-3.64,0l-0.7,2.8l-1.82,0l0-5.04l15.26,0l0,5.04l-1.82,0l-0.7-2.8l-3.64,0l0,15.12l2.8,0.56l0,1.68l-8.54,0z M188.1016,112.88l0-15.12l-2.38-0.56l0-1.54l5.18-0.14l3.22,0c3.5,0,6.02,1.54,6.02,4.9c0,2.52-1.288,3.948-3.64,4.536c2.94,0.672,4.34,2.324,4.34,4.564c0,3.92-2.52,5.6-7.14,5.6l-7.98,0l0-1.68z M190.9016,103.92l2.1,0c2.52,0,4.2-0.98,4.2-3.22c0-1.96-1.4-2.94-3.22-2.94l-3.08,0l0,6.16z M190.9016,112.88l2.94,0c2.66,0,4.06-1.12,4.06-3.22c0-2.8-1.82-3.64-4.9-3.64l-2.1,0l0,6.86z M206.5984,112.908l6.384-17.248l2.8-0.14l6.216,17.388l2.324,0.532l0,1.68l-8.12,0l0-1.68l2.604-0.532l-1.064-3.108l-7.28,0l-1.092,3.108l2.632,0.532l0,1.68l-7.7,0l0-1.68z M216.9864,107.56l-2.828-8.428l-2.94,8.428l5.768,0z M235.3152,97.2l-2.38,0.56l0,16.1c0,3.36-1.96,5.46-5.32,5.46c-0.7,0-1.792-0.14-1.792-0.14l0.252-2.1l1.4,0c1.82,0,2.52-0.98,2.52-2.66l0-16.66l-2.38-0.56l0-1.54l7.7-0.14l0,1.68z M245.076,103.78l6.44,0l0,2.24l-6.44,0l0,6.86l6.44,0l0.56-2.8l1.82,0l0,5.04l-14.14,0l0-1.68l2.38-0.56l0-15.12l-2.38-0.56l0-1.54l5.32-0.14l8.54,0l0,4.76l-1.82,0l-0.7-2.52l-6.02,0l0,6.02z M261.1368,115.12l0-1.68l2.8-0.56l0-15.12l-3.64,0l-0.7,2.8l-1.82,0l0-5.04l15.26,0l0,5.04l-1.82,0l-0.7-2.8l-3.64,0l0,15.12l2.8,0.56l0,1.68l-8.54,0z M276.3576,115.12l0-1.68l2.38-0.56l0-15.12l-2.38-0.56l0-1.54l7.98-0.14l0,1.68l-2.66,0.56l0,6.16l9.38,0l0-6.16l-2.66-0.56l0-1.54l7.98-0.14l0,1.68l-2.38,0.56l0,15.12l2.38,0.56l0,1.68l-7.98,0l0-1.68l2.66-0.56l0-6.72l-9.38,0l0,6.72l2.66,0.56l0,1.68l-7.98,0z M301.8544,112.908l6.384-17.248l2.8-0.14l6.216,17.388l2.324,0.532l0,1.68l-8.12,0l0-1.68l2.604-0.532l-1.064-3.108l-7.28,0l-1.092,3.108l2.632,0.532l0,1.68l-7.7,0l0-1.68z M312.2424,107.56l-2.828-8.428l-2.94,8.428l5.768,0z"/><path fill="#" d=""/></svg>
